<svg width="200" height="200" viewBox="0 0 200 200" xmlns="http://www.w3.org/2000/svg">
  <defs>
    <linearGradient id="bgGradient" x1="0%" y1="0%" x2="100%" y2="100%">
      <stop offset="0%" stop-color="#2a2d3e"/>
      <stop offset="100%" stop-color="#1c1e2a"/>
    </linearGradient>
    <linearGradient id="iconGradient" x1="0%" y1="0%" x2="100%" y2="100%">
      <stop offset="33%" stop-color="#00F3FF"/>
      <stop offset="66%" stop-color="#33f2f5"/>
    </linearGradient>
  </defs>
  <rect width="100%" height="100%" fill="url(#bgGradient)"/>
  <g transform="translate(30,30)">
    <svg
      xmlns="http://www.w3.org/2000/svg"
      width="140"
      height="140"
      viewBox="0 0 24 24"
      fill="url(#iconGradient)"
    >
      <path fill-rule="evenodd" clip-rule="evenodd"
            d="M12.963 2.286a.75.75 0 0 0-1.071-.136 9.742 9.742 0 0 0-3.539 6.176
           7.547 7.547 0 0 1-1.705-1.715.75.75 0 0 0-1.152-.082A9 9 0 1 0 15.68 4.534
           a7.46 7.46 0 0 1-2.717-2.248ZM15.75 14.25a3.75 3.75 0 1 1-7.313-1.172
           c.628.465 1.35.81 2.133 1a5.99 5.99 0 0 1 1.925-3.546
           3.75 3.75 0 0 1 3.255 3.718Z"/>
    </svg>
  </g>
</svg>
